<?xml version="1.0" encoding="UTF-8"?>
<!DOCTYPE svg PUBLIC "-//W3C//DTD SVG 1.1//EN" "http://www.w3.org/Graphics/SVG/1.1/DTD/svg11.dtd">
<!-- Creator: CorelDRAW 2020 (64-Bit) -->
<svg xmlns="http://www.w3.org/2000/svg" xml:space="preserve" width="40px" height="50px" version="1.1" shape-rendering="geometricPrecision" text-rendering="geometricPrecision" image-rendering="optimizeQuality" fill-rule="evenodd" clip-rule="evenodd"
viewBox="0 0 40 50"
 xmlns:xlink="http://www.w3.org/1999/xlink"
 xmlns:xodm="http://www.corel.com/coreldraw/odm/2003">
 <g id="Слой_x0020_2">
  <metadata id="CorelCorpID_0Corel-Layer"/>
  <path fill="#FEFEFE" stroke="#0073BB" stroke-width="0.5" stroke-miterlimit="22.9256" d="M19.98 0.52c10.82,0 19.6,8.94 19.6,19.97 0,5.05 -1.84,9.66 -4.87,13.17 -3.5,4.47 -7.81,10.07 -11.67,14.17 -0.83,0.88 -1.78,1.69 -3.06,1.69 -1.29,0 -2.24,-0.81 -3.07,-1.69 -3.85,-4.1 -8.17,-9.7 -11.67,-14.17 -3.03,-3.51 -4.86,-8.12 -4.86,-13.17 0,-11.03 8.77,-19.97 19.6,-19.97z"/>
  <ellipse fill="#0073BB" cx="19.98" cy="20.49" rx="18.08" ry="18.42"/>
  <path id="ГЭС" fill="white" fill-rule="nonzero" d="M15.3 19.6l4.4 0c0.22,0.57 0.22,1.22 0,1.79l-4.4 0c-0.22,-0.57 -0.22,-1.22 0,-1.79z"/>
  <path id="ГЭС_0" fill="white" fill-rule="nonzero" d="M23.23 20.49c0,3.23 -2.56,5.85 -5.73,5.85 -2.56,0 -4.81,-1.73 -5.51,-4.23l1.86 0c0.63,1.48 2.06,2.44 3.65,2.44 1.1,0 2.09,-0.46 2.81,-1.19 0.72,-0.73 1.17,-1.75 1.17,-2.87 0,-2.24 -1.78,-4.05 -3.98,-4.05 -1.59,0 -3.02,0.96 -3.65,2.43l-1.86 0c0.7,-2.49 2.95,-4.22 5.51,-4.22 3.17,0 5.73,2.61 5.73,5.84z"/>
  <path id="ГЭС_1" fill="white" fill-rule="nonzero" d="M4.86 17.5c0,-1.43 1.13,-2.58 2.53,-2.58 2.08,0 4.16,0 6.25,0 -0.68,0.48 -1.26,1.09 -1.72,1.78l-4.09 0c-0.67,0 -1.22,0.56 -1.22,1.24l0 7.86 -1.75 0c0,-2.76 0,-5.53 0,-8.3z"/>
  <path id="ГЭС_2" fill="white" fill-rule="nonzero" d="M35.1 18.87l-1.87 0c-0.63,-1.47 -2.06,-2.43 -3.65,-2.43 -2.19,0 -3.97,1.81 -3.97,4.05 0,2.24 1.78,4.06 3.97,4.06 1.59,0 3.02,-0.96 3.65,-2.44l1.87 0c-0.71,2.5 -2.96,4.23 -5.52,4.23 -3.16,0 -5.73,-2.62 -5.73,-5.85 0,-3.23 2.57,-5.84 5.73,-5.84 2.56,0 4.81,1.73 5.52,4.22z"/>
 </g>
</svg>
